<svg xmlns="http://www.w3.org/2000/svg" viewBox="0 0 16 16">
  <path fill="currentColor" opacity=".4" d="M8 2 2 4.5V8c0 3.3 2.6 6.4 6 7.5 3.4-1.1 6-4.2 6-7.5V4.5L8 2Z"/>
  <path fill="currentColor" d="M8 1 1 4v4.5c0 3.9 3 7.5 7 8.5 4-1 7-4.6 7-8.5V4L8 1Zm0 1.5 5.5 2.4V8c0 3.3-2.3 6.2-5.5 7.3C4.8 14.2 2.5 11.3 2.5 8V4.9L8 2.5Z"/>
  <path fill="var(--icon-color-accent, #ff8700)" d="M6.5 8.5v-2a1.5 1.5 0 0 1 3 0v2H8.25v-2a.25.25 0 0 0-.5 0v2H6.5Z"/>
  <rect fill="var(--icon-color-accent, #ff8700)" x="5.75" y="8.25" width="4.5" height="3.5" rx=".75"/>
</svg>
